<svg width="512" height="512" viewBox="0 0 512 512" fill="none" xmlns="http://www.w3.org/2000/svg">
<rect width="512" height="512" fill="#3E413D"/>
<path d="M218 313.5L218 137C226.319 114.257 233.137 103.34 252.5 90L218.391 63.8002C218.144 63.6109 218 63.3179 218 63.0072L218 38.9824C218 38.0231 219.22 37.6142 219.798 38.3795L235 58.5C243.868 67.9527 247.919 68.9666 252.464 58.5835C252.487 58.5294 252.507 58.4711 252.521 58.4137L256.419 42.0422C256.668 40.9935 258.172 41.0278 258.374 42.0867L261.467 58.3278C261.489 58.4417 261.532 58.5545 261.592 58.654C268.077 69.523 272.338 69.4327 281 58.5L292.643 39.0958C293.164 38.2261 294.5 38.5961 294.5 39.6103L294.5 63.0205C294.5 63.3236 294.363 63.6104 294.126 63.8002L261.5 90C277.211 100.064 284.295 110.764 294.5 137L294.5 313.5C291.641 334.258 284.395 336.576 257.49 350.251C257.19 350.403 256.815 350.394 256.522 350.228C229.414 334.795 222.776 332.626 218 313.5Z" fill="#DCFF05"/>
<path d="M294.5 313.5C264.625 317.586 247.875 317.445 218 313.5M294.5 313.5L294.5 137M294.5 313.5C291.641 334.258 284.395 336.576 257.49 350.251C257.19 350.403 256.815 350.394 256.522 350.228C229.414 334.795 222.776 332.626 218 313.5M218 313.5L218 137M218 137C247.875 130.039 264.625 128.894 294.5 137M218 137C226.319 114.257 233.137 103.34 252.5 90M294.5 137C284.295 110.764 277.211 100.064 261.5 90M261.5 90L252.5 90M261.5 90L294.126 63.8002C294.363 63.6104 294.5 63.3236 294.5 63.0205L294.5 39.6103C294.5 38.5961 293.164 38.2261 292.643 39.0958L281 58.5C272.338 69.4327 268.077 69.523 261.592 58.6541C261.532 58.5545 261.489 58.4417 261.467 58.3278L258.374 42.0867C258.172 41.0278 256.668 40.9935 256.419 42.0422L252.521 58.4137C252.507 58.4711 252.487 58.5295 252.464 58.5835C247.919 68.9666 243.868 67.9527 235 58.5L219.798 38.3795C219.22 37.6142 218 38.0231 218 38.9824L218 63.0072C218 63.3179 218.144 63.6109 218.391 63.8002L252.5 90" stroke="#061B26" stroke-width="9"/>
<path d="M239.989 239.545L238.229 247.026C238.146 247.378 238.535 247.65 238.837 247.452L250.9 239.565C250.965 239.523 251.041 239.5 251.119 239.5H273.6C273.821 239.5 274 239.321 274 239.1V216.4C274 216.179 273.821 216 273.6 216H240.4C240.179 216 240 216.179 240 216.4V239.454C240 239.484 239.996 239.515 239.989 239.545Z" stroke="#061B26" stroke-width="6"/>
<circle cx="248.5" cy="228.5" r="2.5" fill="#061B26"/>
<circle cx="266.5" cy="228.5" r="2.5" fill="#061B26"/>
<circle cx="257.5" cy="228.5" r="2.5" fill="#061B26"/>
<path d="M343.5 25L329 56.5M168 25L174 49.5M180 100.5L194 139M329 113.5L314.5 145" stroke="#41494E" stroke-width="4"/>
</svg>
