<svg width="139" height="538" viewBox="0 0 139 538" fill="none" xmlns="http://www.w3.org/2000/svg">
<path d="M5.00001 470.647L5.00003 173.207C19.0274 134.879 30.5245 116.483 63.1765 94.0016L5.39113 49.6436C5.14457 49.4543 5.00004 49.1612 5.00004 48.8504L5.00005 5.98088C5.00005 5.02178 6.21935 4.61272 6.79773 5.3778L33.6667 40.9173C48.6368 56.8645 55.4657 58.5595 63.14 41.001C63.1636 40.9469 63.1834 40.8884 63.1971 40.831L70.5264 10.067C70.7762 9.01849 72.2797 9.05273 72.4815 10.1116L78.3201 40.7451C78.3418 40.859 78.3854 40.972 78.4447 41.0717C89.4169 59.494 96.6011 59.3765 111.235 40.9173L132.143 6.09363C132.665 5.22424 134 5.5943 134 6.6084L134 48.8637C134 49.167 133.862 49.4538 133.626 49.6436L78.3529 94.0016C104.846 110.962 116.791 128.994 134 173.207L134 470.647C129.168 505.715 116.899 509.555 71.255 532.751C70.9552 532.903 70.5785 532.894 70.2862 532.728C24.3011 506.551 13.0727 502.955 5.00001 470.647Z" fill="#DCFF05"/>
<path d="M134 470.647C83.6223 477.534 55.3776 477.296 5.00001 470.647M134 470.647L134 173.207M134 470.647C129.168 505.715 116.899 509.555 71.255 532.751C70.9552 532.903 70.5785 532.894 70.2862 532.728C24.3011 506.551 13.0727 502.955 5.00001 470.647M5.00001 470.647L5.00003 173.207M5.00003 173.207C55.378 161.477 83.6217 159.547 134 173.207M5.00003 173.207C19.0274 134.879 30.5245 116.483 63.1765 94.0016M134 173.207C116.791 128.994 104.846 110.962 78.3529 94.0016M78.3529 94.0016L63.1765 94.0016M78.3529 94.0016L133.626 49.6436C133.862 49.4538 134 49.167 134 48.8637L134 6.60837C134 5.59429 132.665 5.22421 132.143 6.09363L111.235 40.9173C96.6011 59.3765 89.4169 59.494 78.4447 41.0717C78.3854 40.972 78.3418 40.859 78.3201 40.745L72.4815 10.1116C72.2797 9.05276 70.7762 9.01851 70.5264 10.067L63.1971 40.831C63.1834 40.8884 63.1636 40.9469 63.14 41.001C55.4657 58.5595 48.6368 56.8645 33.6667 40.9173L6.79773 5.37778C6.21935 4.61275 5.00005 5.02179 5.00005 5.98085L5.00004 48.8504C5.00004 49.1612 5.14458 49.4543 5.39113 49.6436L63.1765 94.0016" stroke="#061B26" stroke-width="9"/>
<path d="M42.0874 345.986L38.9547 359.292C38.872 359.643 39.2606 359.916 39.5629 359.718L60.5473 346.006C60.6124 345.964 60.6884 345.941 60.7661 345.941H99.0313C99.2522 345.941 99.4313 345.762 99.4313 345.541V306.739C99.4313 306.518 99.2522 306.339 99.0313 306.339H42.498C42.2771 306.339 42.098 306.518 42.098 306.739V345.895C42.098 345.926 42.0944 345.956 42.0874 345.986Z" stroke="#061B26" stroke-width="6"/>
<ellipse cx="56.4314" cy="327.404" rx="4.21568" ry="4.21304" fill="#061B26"/>
<ellipse cx="86.7843" cy="327.404" rx="4.21568" ry="4.21304" fill="#061B26"/>
<ellipse cx="71.6078" cy="327.404" rx="4.21568" ry="4.21304" fill="#061B26"/>
</svg>
